<svg width="230" height="114" viewBox="0 0 230 114" fill="none" xmlns="http://www.w3.org/2000/svg">
<path d="M229.307 82.7599V85.9068H213.987V82.7599H229.307Z" fill="#898989"/>
<path d="M229.307 51.4265V54.5735H213.987V51.4265H229.307Z" fill="#898989"/>
<path d="M229.307 20.0932V23.2401H213.987V20.0932H229.307Z" fill="#898989"/>
<path d="M227.68 110.707V113.96H52V110.707H54.0934H56.4133H75.44H77.76H87.5067H89.6H118.84H140.88H143.907H165.947H168.707H190.76H193.68H215.733H218.28H227.68Z" fill="#9E320B"/>
<path d="M227.68 94.2265V110.707H218.28V94.2265H227.68Z" fill="#D1D3D5"/>
<path d="M218.28 94.2265V110.707H215.733V94.2265H218.28Z" fill="#AA9C99"/>
<path d="M215.733 94.2265V110.707H193.68V94.2265H213.987H215.733Z" fill="#D1D3D5"/>
<path d="M213.987 85.9068V94.2266H188.227V82.7599H213.987V85.9068Z" fill="#C84513"/>
<path d="M213.987 66.6136V82.7599H188.227V66.6136H213.987Z" fill="#FC7B42"/>
<path d="M213.987 54.5735V66.6136H188.227V51.4266H213.987V54.5735Z" fill="#C84513"/>
<path d="M213.987 35.2803V51.4265H188.227V35.2803H213.987Z" fill="#FC7B42"/>
<path d="M213.987 23.2401V35.2803H188.227V20.0932H190.12H190.68H191.387H191.947H194.6H195.16H199.64H200.2H201.32H201.88H205.693H206.253H208.92H209.48H211.667H213.987V23.2401Z" fill="#C84513"/>
<path d="M213.986 6.50668V20.0932H211.667V6.50668H213.986Z" fill="#898989"/>
<path d="M193.68 94.2265V110.707H190.76V94.2265H193.68Z" fill="#AA9C99"/>
<path d="M190.76 94.2265V110.707H168.707V94.2265H185.213H188.227H190.76Z" fill="#D1D3D5"/>
<path d="M188.227 85.9068V94.2266H185.213V85.9068H188.227Z" fill="#80A096"/>
<path d="M188.227 82.7599V85.9068H140.88V82.7599H143.907H185.213H188.227Z" fill="#A3C9BE"/>
<path d="M188.227 66.6136V82.7599H185.213V54.5735H188.227V66.6136Z" fill="#80A096"/>
<path d="M188.227 51.4265V54.5735H140.88V51.4265H143.907V51.4803H185.76V51.4265H188.227Z" fill="#A3C9BE"/>
<path d="M188.227 35.2802V51.4265H185.213V23.2401H188.227V35.2802Z" fill="#80A096"/>
<path d="M188.227 20.0932V23.2401H140.88V20.0932H143.907H185.213H188.227Z" fill="#A3C9BE"/>
<path d="M185.213 85.9068V94.2266H143.907V85.9068H185.213Z" fill="#9E320B"/>
<path d="M173.96 76.2932V58.3068H155.627V76.2932H173.96ZM185.213 54.5735V82.7599H143.907V54.5735H185.213Z" fill="#AA9C99"/>
<path d="M173.96 44.9598V26.9735H155.627V44.9598H173.96ZM185.213 23.2401V51.4265H143.907V23.2401H185.213Z" fill="#AA9C99"/>
<path d="M185.213 3.8147e-06V20.0932H143.907V3.8147e-06H155.627V11.0267H173.96V3.8147e-06H185.213Z" fill="#AA9C99"/>
<path d="M173.96 58.3068V76.2932H155.627V58.3068H173.96Z" fill="#5A5A5A"/>
<path d="M173.96 26.9734V44.9598H155.627V26.9734H173.96Z" fill="#5A5A5A"/>
<path d="M168.707 94.2265V110.707H165.947V94.2265H168.707Z" fill="#AA9C99"/>
<path d="M165.947 94.2265V110.707H143.907V94.2265H165.947Z" fill="#D1D3D5"/>
<path d="M143.907 94.2265V110.707H140.88V94.2265H143.907Z" fill="#AA9C99"/>
<path d="M143.907 85.9068V94.2266H140.88V85.9068H143.907Z" fill="#80A096"/>
<path d="M143.907 54.5735V82.7599H140.88V54.5735H143.907Z" fill="#80A096"/>
<path d="M143.907 23.2401V51.4265H140.88V23.2401H143.907Z" fill="#80A096"/>
<path d="M143.907 3.8147e-06V20.0932H140.88V3.8147e-06H143.907Z" fill="#80A096"/>
<path d="M140.88 94.2265V110.707H118.84V94.2265H121.16H129.107H140.88Z" fill="#D1D3D5"/>
<path d="M140.88 86.8V89.3469H121.16V86.8H129.107H140.88Z" fill="#AA9C99"/>
<path d="M140.88 56.1599V58.7197H121.16V56.1599H129.107H140.88Z" fill="#AA9C99"/>
<path d="M140.88 24.8401V27.3864H121.16V24.8401H129.107H140.88Z" fill="#AA9C99"/>
<path d="M129.107 89.347V94.2266H121.16V89.347H129.107Z" fill="#EF5E24"/>
<path d="M129.107 58.7198V86.8H121.16V58.7198H129.107Z" fill="#EF5E24"/>
<path d="M129.107 27.3864V56.1599H121.16V27.3864H129.107Z" fill="#EF5E24"/>
<path d="M129.107 14.5735V24.8401H121.16V14.5735H129.107Z" fill="#EF5E24"/>
<path d="M121.16 89.347V94.2266H118.84V3.05176e-05H121.16V14.5735V24.8402V27.3864V56.1599V58.7198V86.8V89.347Z" fill="#898989"/>
<path d="M118.84 94.2265V110.707H89.6V87.4667H118.84V94.2265Z" fill="#AA9C99"/>
<path d="M118.84 84.3333V87.4667H77.76V84.3333H87.5067H89.6H102.133H112.573H118.84Z" fill="#A3C9BE"/>
<path d="M118.84 55.0932V84.3334H112.573V63.4803H102.133V84.3334H89.6V55.0932H118.84Z" fill="#AA9C99"/>
<path d="M118.84 51.9469V55.0932H77.76V51.9469H87.5067H89.6H102.133H112.573H118.84Z" fill="#A3C9BE"/>
<path d="M118.84 23.2401V51.9469H112.573V31.1068H102.133V51.9469H89.6V23.2401H118.84Z" fill="#AA9C99"/>
<path d="M118.84 20.0932V23.2401H77.76V20.0932H118.84Z" fill="#A3C9BE"/>
<path d="M112.573 63.4803V84.3334H102.133V63.4803H112.573Z" fill="#2B2E31"/>
<path d="M112.573 31.1068V51.9469H102.133V31.1068H112.573Z" fill="#2B2E31"/>
<path d="M89.6 87.4667V110.707H87.5067V87.4667H89.6Z" fill="#80A096"/>
<path d="M89.6 55.0932V84.3334H87.5067V55.0932H89.6Z" fill="#80A096"/>
<path d="M89.6 23.2401V51.9469H87.5067V23.2401H89.6Z" fill="#80A096"/>
<path d="M77.7601 87.4667V110.707H75.4401V-7.62939e-06H77.7601V20.0932V23.2401V51.9469V55.0932V84.3333V87.4667Z" fill="#898989"/>
<path d="M75.44 99.3333V110.707H56.4133V99.3333H75.44Z" fill="#C84513"/>
<path d="M75.44 93.5334V99.3334H56.4133V93.5334H75.44Z" fill="#FC7B42"/>
<path d="M75.44 89.4667V93.5333H56.4133V89.4667H75.44Z" fill="#EF5E24"/>
<path d="M75.44 84.1469V89.4667H56.4133V84.1469H75.44Z" fill="#EF5E24"/>
<path d="M75.44 67.3068V84.147H56.4133V67.3068H75.44Z" fill="#C84513"/>
<path d="M75.44 61.5068V67.3068H56.4133V61.5068H75.44Z" fill="#FC7B42"/>
<path d="M75.44 57.4402V61.5068H56.4133V57.4402H75.44Z" fill="#EF5E24"/>
<path d="M75.44 52.1334V57.4402H56.4133V52.1334H75.44Z" fill="#FC7B42"/>
<path d="M75.44 35.2802V52.1333H56.4133V35.2802H75.44Z" fill="#C84513"/>
<path d="M75.44 29.4803V35.2803H56.4133V29.4803H75.44Z" fill="#FC7B42"/>
<path d="M75.44 25.4136V29.4802H56.4133V25.4136H75.44Z" fill="#EF5E24"/>
<path d="M75.44 20.0932V25.4136H56.4133V20.0932H75.44Z" fill="#FC7B42"/>
<path d="M56.4134 99.3333V110.707H54.0934V-7.62939e-06H56.4134V20.0932V25.4136V29.4803V35.2803V52.1333V57.4401V61.5068V67.3068V84.1469V89.4667V93.5333V99.3333Z" fill="#898989"/>
<path d="M51.6093 58.36L41.4358 58.7733V57.9467L51.6093 58.36Z" fill="#1F1F1F"/>
<path d="M41.4358 74.5333V77.4534H38.7562V75.4667C39.503 75.2933 40.4229 75.0133 41.4358 74.5333Z" fill="#878787"/>
<path d="M38.7562 69.1467V56.0934H41.4358V68.84C40.0896 70.3867 38.7562 70.3867 38.7562 70.3867V69.1467Z" fill="#878787"/>
<path d="M17.1958 54.8C20.6358 53 24.5691 52.5734 24.7426 52.5467H24.7833L24.8363 53.3734C24.8098 53.3734 23.3291 53.56 21.4358 54.0667V54.08C21.0895 54.04 20.7562 54.1467 20.4895 54.3467C19.4895 54.6667 18.2895 55.1467 17.2895 55.6667H17.2759C17.2489 55.3867 17.2093 55.0934 17.1958 54.8Z" fill="#878787"/>
<path d="M26.3828 55.8134L26.2489 54.4134C27.3426 54.1334 29.0896 54 29.0896 54H29.1166L29.1958 55.3733H29.1828C27.2224 55.52 26.3828 55.8134 26.3828 55.8134Z" fill="#191919"/>
<path d="M25.9562 63.76H25.9426C25.7691 63.3867 25.6093 62.9733 25.4895 62.4933L24.8494 53.44L24.8363 53.3733L24.7833 52.5467L24.3963 47.1867L24.3562 46.5467C24.3562 46.5467 25.7963 45.72 28.5822 45.8267L29.1166 54H29.0895C29.0895 54 27.3426 54.1333 26.2489 54.4133L26.3827 55.8133C26.3827 55.8133 27.2223 55.52 29.1827 55.3733H29.1958L29.9297 66.6267C29.9297 66.6267 28.263 66.68 26.889 65.1867C26.7426 65.0267 26.5963 64.8533 26.463 64.6667C26.2759 64.4 26.1025 64.1067 25.9562 63.76Z" fill="#878787"/>
<path d="M11.9692 100.64L9.35622 106.013L6.07595 103.36C3.58222 109.76 0.929685 110.8 0.302485 110.8C-0.310449 110.8 0.302482 107.187 1.12968 103.667C1.95622 100.16 3.08955 96.5467 4.63582 96.8667C6.19582 97.1733 11.9692 100.64 11.9692 100.64Z" fill="#373733"/>
<path d="M42.3161 113.027C40.0495 113.027 36.8495 113.027 34.9828 113.027C33.1297 113.027 32.5031 112.96 32.5031 110.587C32.5031 108.213 32.6625 102.44 32.6625 102.44H38.5823L38.0896 108.107C38.0896 108.107 44.3828 109.56 44.9959 112.24C44.9959 112.24 44.5823 113.027 42.3161 113.027Z" fill="#1C1C1C"/>
<path d="M24.8363 97.3734C24.8363 97.3734 25.703 110.693 20.4895 111.24C15.2759 111.787 9.3562 106.013 9.3562 106.013L11.9691 100.64C11.9691 100.64 16.4358 102.08 17.6895 103.12C17.6895 103.12 16.7562 99.2 16.7691 97.3734C19.0759 98.2 22.0895 97.9467 24.8363 97.3734Z" fill="#1F1F1F"/>
<path d="M37.703 88.68C40.5964 89.9067 38.5822 102.44 38.5822 102.44H32.6625C32.6625 102.44 32.1959 98.5333 32.1959 95.04C32.1959 95.04 28.7833 96.5467 24.8364 97.3733C22.0896 97.9467 19.076 98.2 16.7692 97.3733C14.7031 96.64 13.1958 95.0267 12.9958 92.0133C19.7161 88.76 26.889 87.68 26.889 87.68C26.889 87.68 34.8098 87.44 37.703 88.68Z" fill="#373733"/>
<path d="M22.1829 79.6267C21.5162 78.44 20.7298 76.6 19.9427 74.9734L18.7031 72.12C18.7427 71.88 18.8099 71.6267 18.8891 71.3734C20.6359 65.44 23.2225 66.36 23.2225 66.36C25.6495 66.9334 26.5693 74 26.5693 74L26.9959 73.92V73.9067L32.6626 72.76C32.823 76.2134 33.9026 77.0667 33.9026 77.0667C33.9026 77.0667 30.1298 78.7867 27.0365 79.9334C25.1698 80.6267 23.5558 81.0934 23.1433 80.8667C22.8626 80.7067 22.5427 80.2534 22.1829 79.6267Z" fill="#373733"/>
<path d="M19.9427 74.9733C20.7298 76.6 21.5162 78.44 22.1829 79.6267C19.5558 81.0533 17.3563 77.56 18.7031 72.12L19.9427 74.9733Z" fill="#1F1F1F"/>
<path d="M12.9958 92.0134C15.276 76.0134 15.7833 69.1467 17.1828 66C18.0229 64.0934 18.4765 63.08 18.6896 62.5734C18.6896 62.5734 22.3426 66.16 26.463 64.6667C26.5964 64.8534 26.7426 65.0267 26.889 65.1867C26.889 65.1867 26.9562 69.52 26.9958 73.9067V73.92L26.5692 74C26.5692 74 25.6494 66.9333 23.2224 66.36C23.2224 66.36 20.6358 65.44 18.8891 71.3734C18.8098 71.6267 18.7427 71.88 18.7031 72.12C17.3563 77.56 19.5557 81.0533 22.1828 79.6267C22.5427 80.2533 22.8625 80.7067 23.1432 80.8667C23.5557 81.0934 25.1697 80.6267 27.0364 79.9334C27.0495 80.52 27.0364 81.0534 27.0364 81.48C27.0229 83.0267 26.889 87.68 26.889 87.68C26.889 87.68 19.7161 88.76 12.9958 92.0134Z" fill="#FF9500"/>
<path d="M33.9025 77.0667C33.9025 77.0667 32.8229 76.2133 32.6625 72.76L35.1958 72.0933C35.1958 72.0933 35.8098 69.36 38.7562 69.1467V70.3867C38.7562 70.3867 40.0895 70.3867 41.4358 68.84C42.7833 67.2933 44.6358 72.9733 41.6895 74.4133C41.6093 74.4533 41.5161 74.4933 41.4358 74.5333C40.4229 75.0133 39.503 75.2933 38.7562 75.4667C37.4499 75.76 36.6358 75.7067 36.6358 75.7067C36.6358 75.7067 35.4895 76.36 33.9025 77.0667Z" fill="#FB9200"/>
<path d="M18.889 62.12L20.4896 60.7467C20.4896 60.7467 23.1958 63.68 25.9426 63.76H25.9562C26.1025 64.1066 26.276 64.4 26.463 64.6667C22.3426 66.16 18.6896 62.5733 18.6896 62.5733C18.8364 62.24 18.889 62.12 18.889 62.12Z" fill="#F6B961"/>
<path d="M24.8495 53.44L25.4896 62.4933C25.6093 62.9733 25.7692 63.3867 25.9427 63.76C23.1959 63.68 20.4896 60.7467 20.4896 60.7467L20.7427 60.5333L21.2224 57.7467C21.2224 57.7467 19.9427 57.3067 19.8495 55.8134C19.8099 55.2 20.076 54.6667 20.4896 54.3467C20.7563 54.1467 21.0896 54.04 21.4359 54.08C21.9297 54.12 22.45 54.4667 22.8364 55.24L24.0093 55.5467C24.0093 55.5467 23.9959 54.6134 24.8229 53.44H24.8495Z" fill="#FFCD91"/>
<path d="M22.8363 55.24C22.4499 54.4667 21.9297 54.12 21.4358 54.08V54.0667C23.3291 53.56 24.8098 53.3734 24.8363 53.3734L24.8494 53.44H24.8229C23.9958 54.6134 24.0093 55.5467 24.0093 55.5467L22.8363 55.24Z" fill="#62391A"/>
<path d="M18.889 62.12C18.889 62.12 17.7426 59.5333 17.2896 55.6666C18.2896 55.1466 19.4896 54.6667 20.4896 54.3467C20.076 54.6667 19.8098 55.2 19.8494 55.8133C19.9426 57.3067 21.2224 57.7467 21.2224 57.7467L20.7426 60.5333L20.4896 60.7467L18.889 62.12Z" fill="#62391A"/>
<path d="M17.1297 54C16.8494 49.2267 19.6093 47.4267 24.3697 47.1867H24.3964L24.7833 52.5467H24.7426C24.5692 52.5733 20.6358 53 17.1958 54.8C17.1697 54.5333 17.1432 54.2667 17.1297 54Z" fill="#62391A"/>
<path d="M54.3562 39V113.027H51.876V39H54.3562Z" fill="#5A5A5A"/>
<path d="M18.6937 62.5627C19.363 62.864 19.9822 63.1707 20.6078 63.4374C21.2317 63.7014 21.8338 63.984 22.4723 64.1347C23.0843 64.3747 23.7254 64.4787 24.3749 64.5667C25.0291 64.6614 25.6999 64.6507 26.4379 64.6387L26.4598 64.7014C25.1281 65.204 23.6306 65.1934 22.2745 64.7707C20.9207 64.3307 19.6863 63.572 18.6467 62.6107L18.6937 62.5627Z" fill="#C68230"/>
<path d="M18.6937 62.5627C19.7374 63.4973 20.977 64.232 22.3139 64.644C23.6411 65.0787 25.1114 65.1147 26.4379 64.6387L26.4598 64.7013C25.8687 65.1573 25.1349 65.4173 24.3765 65.5013C23.615 65.6 22.8489 65.46 22.1166 65.2787C21.4073 65.0133 20.7202 64.6987 20.1306 64.2453C19.5447 63.792 19.0103 63.2707 18.6467 62.6107L18.6937 62.5627Z" fill="#FFB600"/>
<path d="M20.4968 60.7294C21.2406 61.4814 22.0765 62.148 22.9817 62.692C23.8734 63.2454 24.8718 63.6907 25.9312 63.7374L25.9301 63.8027C25.3812 64.02 24.7792 64.0014 24.215 63.8894C23.6464 63.7801 23.138 63.5134 22.6354 63.2614C22.1792 62.932 21.724 62.608 21.3521 62.192C20.9844 61.7747 20.6489 61.3254 20.4484 60.7747L20.4968 60.7294Z" fill="#C68230"/>
<path d="M20.4968 60.7293C21.0297 60.9467 21.4874 61.2093 21.9432 61.464C22.3984 61.7147 22.8073 62.0147 23.2588 62.2373C23.6634 62.54 24.1073 62.7547 24.5354 63.012C24.9697 63.2653 25.4166 63.4853 25.9312 63.7373L25.9301 63.8027C24.85 63.7787 23.8276 63.348 22.912 62.8067C22.0073 62.236 21.1822 61.548 20.4484 60.7747L20.4968 60.7293Z" fill="#FFDAAE"/>
<path d="M26.4281 73.2053C26.4354 72.4107 26.4478 71.616 26.4749 70.82L26.5973 68.0067L26.8354 65.1907L26.9016 65.1894L27.0281 73.9067L26.5557 74.0093L26.4281 73.2053Z" fill="#E57900"/>
<path d="M27.0786 79.9174C27.0786 80.632 27.0745 81.348 27.0625 82.0627L26.9016 87.6854L26.8354 87.684L26.639 84.8653L26.5448 82.0547L26.4948 80.1307L27.0786 79.9174Z" fill="#E57900"/>
<path d="M11.962 100.623C12.9557 100.941 13.9406 101.287 14.912 101.669C15.8749 102.069 16.862 102.439 17.7145 103.081L17.6093 103.147C17.3932 102.197 17.2 101.245 17.0344 100.288C16.876 99.3293 16.7202 98.3653 16.7182 97.388H16.7844C17.0161 98.3453 17.2849 99.2653 17.5317 100.199C17.8052 101.124 17.9828 102.075 18.2484 102.993L18.7306 104.661L17.2942 103.587C16.9692 103.343 16.5317 103.065 16.0874 102.84C15.6453 102.599 15.1692 102.409 14.7145 102.163C13.7948 101.691 12.8541 101.241 11.9412 100.685L11.962 100.623Z" fill="#373733"/>
<path d="M9.30737 106.008C9.31311 105.457 9.43284 104.963 9.56884 104.475C9.70577 103.988 9.92764 103.543 10.1052 103.076C10.3656 102.649 10.576 102.199 10.8782 101.792C11.1776 101.384 11.4943 100.985 11.9219 100.64L11.9818 100.668C11.1432 102.475 10.2719 104.264 9.36724 106.037L9.30737 106.008Z" fill="#0C0C0C"/>
<path d="M24.8863 97.3827C25.013 99.736 24.9644 102.1 24.6598 104.441C24.4988 105.609 24.2696 106.775 23.8786 107.897C23.4796 109 22.9291 110.136 21.9144 110.852C21.4124 111.203 20.7884 111.384 20.1915 111.395C19.5972 111.429 18.9911 111.385 18.4072 111.287C17.2322 111.084 16.1124 110.661 15.0494 110.147C12.9306 109.091 11.0114 107.683 9.29004 106.071L9.38377 105.975C10.4067 106.589 11.3827 107.228 12.4275 107.743C13.4296 108.312 14.453 108.824 15.4999 109.216C16.5524 109.579 17.5822 109.944 18.6134 110.051C19.1515 110.105 19.5843 110.143 20.103 110.101C20.6092 110.071 20.8332 109.971 21.1614 109.753C21.7911 109.357 22.3171 108.451 22.6952 107.475C23.1098 106.495 23.3562 105.399 23.6187 104.296C24.0691 102.068 24.428 99.7506 24.7535 97.392L24.8863 97.3827Z" fill="#373733"/>
<path d="M24.3516 47.256C22.7443 47.8107 21.1864 48.332 20.0735 49.1827C18.9724 50.0307 18.4557 51.1547 18.3333 52.5693C18.2349 53.2613 18.2781 54.012 18.312 54.8134C18.3235 55.6067 18.4073 56.396 18.4484 57.1973C18.5787 58.796 18.7427 60.4067 18.9271 62.0947L18.8047 62.1494C18.1645 60.616 17.7328 59.012 17.4177 57.3854C17.1355 55.756 16.8797 54.1107 17.0083 52.432C17.1011 51.6 17.3203 50.7667 17.7521 50.036C18.1771 49.3027 18.8099 48.7 19.5355 48.28C21.0036 47.44 22.7031 47.204 24.3437 47.1227L24.3516 47.256Z" fill="#845331"/>
<path d="M29.9109 66.6627C28.8052 66.7253 27.6719 66.3 26.7912 65.548C25.9245 64.7694 25.3745 63.7027 25.0281 62.62L25.0229 62.604L25.0135 62.5334C24.8375 61.2107 24.7615 59.88 24.6364 58.5547C24.5323 57.2267 24.3828 55.9014 24.3287 54.5694L24.1083 50.5787C24.0349 49.2494 24.0323 47.9134 23.9907 46.5814L23.9828 46.332L24.1703 46.2454C24.5599 46.0654 24.9016 45.9614 25.2771 45.884C25.6468 45.812 26.0167 45.7667 26.3859 45.74C27.1245 45.6894 27.8579 45.7147 28.5792 45.8L28.5765 45.8667C27.1468 45.8307 25.6625 45.9747 24.3697 46.5947L24.3916 46.5534L25.5219 62.4974L25.5208 62.488C25.7979 63.5267 26.2713 64.5374 27.0344 65.304C27.7912 66.0654 28.8333 66.5654 29.9093 66.5974L29.9109 66.6627Z" fill="#515151"/>
<path d="M29.2484 55.352C29.4907 59.1094 29.7224 62.868 29.9432 66.628L29.8765 66.632L29.4355 64.0494L29.1104 61.4613C28.9068 59.7333 28.8036 58 28.6459 56.2707C28.6349 55.988 28.6224 55.7067 28.6099 55.424L29.2484 55.352Z" fill="#FFB600"/>
<path d="M28.5448 54.0493C28.4979 53.0546 28.4541 52.06 28.4427 51.0626L28.4349 48.4533L28.5448 45.836L28.6115 45.832C28.8016 48.5693 28.9855 51.3066 29.164 54.0453L28.5448 54.0493Z" fill="#FFB600"/>
<path d="M21.7343 55.2507C21.4895 55.1894 21.3541 55.2721 21.2677 55.3494C21.1849 55.4321 21.1025 55.532 21.0811 55.6667C21.0182 55.788 21.0239 55.9267 21.039 56.0801C21.0609 56.2307 21.115 56.4121 21.2114 56.6174L21.1915 56.6454C20.8582 56.4187 20.6259 55.98 20.7634 55.5654C20.8301 55.368 20.9718 55.188 21.1691 55.1094C21.365 55.0187 21.6062 55.0907 21.7525 55.2227L21.7343 55.2507Z" fill="#C68230"/>
<path d="M12.9172 92.0107L14.9047 76.828C15.264 74.3013 15.6042 71.768 16.1198 69.2627C16.5344 66.7067 17.8542 64.4454 18.8036 62.0973L18.9276 62.1467C18.6688 63.428 18.249 64.6387 17.9042 65.8827C17.4746 67.0427 17.2891 68.22 17.1328 69.472L16.225 77.0054C15.5192 82.052 14.6579 87.1013 13.0484 92.028L12.9172 92.0107Z" fill="#FFB600"/>
<path d="M26.876 87.7346C24.601 88.7973 22.3301 89.5213 20.0432 90.244C17.7421 90.9253 15.4786 91.6146 13.0041 92.064L12.9614 91.9746C17.3364 89.824 22.0573 88.4226 26.8604 87.6346L26.876 87.7346Z" fill="#1F1F1F"/>
<path d="M23.1801 66.4347C22.4166 66.5173 21.9036 67.004 21.5333 67.548C21.1468 68.0907 20.8817 68.736 20.638 69.3933C20.1948 70.7147 19.8021 72.1854 19.6021 73.5454C19.3656 74.9254 19.3234 76.332 19.5864 77.5907C19.738 78.2067 19.9645 78.792 20.3749 79.1734C20.7604 79.5774 21.4552 79.7147 22.238 79.5253L22.3057 79.64C21.6521 80.06 20.7489 80.1947 20.0354 79.7894C19.3276 79.3947 18.8833 78.6813 18.6052 77.9587C18.0625 76.48 18.063 74.8707 18.2854 73.3414C18.5484 71.808 19.0114 70.32 19.6968 68.924C20.0494 68.2333 20.4749 67.5653 21.0525 67.0293C21.6156 66.5067 22.4134 66.0974 23.2234 66.308L23.1801 66.4347Z" fill="#0C0C0C"/>
<path d="M32.6521 72.8027C32.1656 73.0107 31.6692 73.1667 31.1771 73.3441C30.6855 73.5254 30.1812 73.6454 29.6844 73.7987C29.1844 73.9374 28.6901 74.1081 28.1828 74.2121L26.6692 74.564L26.1083 74.6947L25.9943 74.0827L25.6052 72.0054C25.4703 71.3107 25.3088 70.6241 25.1099 69.9521C24.9396 69.2721 24.7432 68.5987 24.4557 67.9734C24.1729 67.352 23.8437 66.7254 23.1937 66.404L23.2093 66.3387C23.9448 66.532 24.4197 67.1747 24.7855 67.7827C25.1468 68.4134 25.4177 69.0894 25.6473 69.7747C26.0973 71.152 26.4188 72.5667 26.6167 74.0014L26.5432 73.9494L32.6391 72.7387L32.6521 72.8027Z" fill="#515151"/>
<path d="M19.9844 74.948C21.0713 76.1134 21.9073 77.4347 22.7218 78.6614L23.3306 79.5214C23.4276 79.6494 23.5281 79.768 23.612 79.8467C23.6749 79.928 23.8161 79.9614 23.5713 79.824C23.351 79.756 23.4516 79.7907 23.462 79.776L23.6188 79.7561C23.7505 79.7334 23.9062 79.6987 24.0661 79.6561C24.3885 79.5721 24.7286 79.4614 25.0692 79.3467C26.4588 78.9254 27.8786 78.4134 29.3385 78.0094C30.7953 77.588 32.2801 77.2107 33.8562 77.0107L33.912 77.132C31.1437 78.3934 28.3656 79.6374 25.4718 80.616C24.7276 80.8107 24.0322 81.1134 23.1708 81.016C22.7421 80.8254 22.5677 80.4614 22.3458 80.1494C22.1412 79.8227 21.9614 79.484 21.7874 79.144C21.103 77.78 20.5156 76.3787 19.8645 75.0054L19.9844 74.948Z" fill="#515151"/>
<path d="M32.6328 72.7226L35.1521 72.0173L35.0916 72.08C35.2995 71.2573 35.7656 70.5133 36.4192 69.976C37.0683 69.4333 37.9036 69.1533 38.7323 69.108L38.7391 69.2093C38.3464 69.4586 38.0145 69.6946 37.7276 69.932C37.4412 70.1706 37.2099 70.4133 36.9927 70.656C36.7927 70.9146 36.5891 71.16 36.4307 71.448C36.2505 71.7053 36.1041 72.06 35.9807 72.2813L35.6615 72.856L35.3864 72.8986C34.9531 72.9653 34.5104 72.996 34.0579 72.9906C33.6063 72.9893 33.1385 72.9293 32.6588 72.8186L32.6328 72.7226Z" fill="#FFB600"/>
<path d="M39.0688 77.4667H38.4021V75.476H39.0688V77.4667Z" fill="#A5A5A5"/>
<path d="M41.751 77.4667H41.0844V74.5454H41.751V77.4667Z" fill="#FFB600"/>
<path d="M41.751 68.8494H41.0844V56.1014H41.751V68.8494Z" fill="#FFB600"/>
<path d="M39.0688 70.3973H38.4021V56.1013H39.0688V70.3973Z" fill="#A5A5A5"/>
<path d="M42.6156 73.692C42.2948 74.128 41.803 74.4387 41.3125 74.64C40.8234 74.8667 40.3213 75.0733 39.8073 75.2387C38.7801 75.5733 37.7082 75.8027 36.6145 75.768L36.6453 75.76C35.7478 76.248 34.8301 76.6907 33.8973 77.1013L33.8702 77.0413C34.2765 76.7027 34.6854 76.3867 35.1068 76.1013C35.5338 75.8293 35.9358 75.5 36.3593 75.2547L36.4697 75.1906L36.6568 75.188C37.0978 75.1813 37.6358 75.1013 38.1218 74.9906C38.6224 74.908 39.1286 74.816 39.626 74.6773L41.138 74.2653C41.6885 74.0946 42.0838 74.012 42.565 73.6493L42.6156 73.692Z" fill="#FFB600"/>
<path d="M41.3943 68.8253C41.55 68.624 41.8631 68.464 42.1312 68.5907C42.3922 68.7013 42.5683 68.924 42.7115 69.1467C42.9932 69.604 43.1506 70.1227 43.2443 70.6454C43.3916 71.6854 43.2688 72.8293 42.6172 73.6907L42.5635 73.6507C42.6807 73.0974 42.7328 72.6267 42.7198 72.148C42.7068 71.676 42.7031 71.2067 42.5864 70.7494C42.5531 70.2827 42.4135 69.8307 42.2692 69.42C42.2042 69.212 42.1042 69.0214 41.9979 68.9174C41.9126 68.7774 41.7298 68.7387 41.4412 68.872L41.3943 68.8253Z" fill="#FFB600"/>
<path d="M38.7349 70.364C39.253 70.3186 39.7473 70.1 40.1858 69.824C40.6338 69.5586 41.0395 69.2173 41.3921 68.8266L41.4431 68.8706C41.4483 69.052 41.3973 69.192 41.3677 69.3573C41.3057 69.492 41.2411 69.6306 41.1645 69.7626C41.0078 70.024 40.7625 70.1946 40.5333 70.3933C40.2541 70.5093 39.9817 70.6506 39.6671 70.668C39.3573 70.6826 39.0286 70.652 38.7358 70.4306L38.7349 70.364Z" fill="#FFB600"/>
<path d="M32.5792 102.451C32.2984 99.9947 32.1021 97.5294 32.0812 95.0547L32.2202 95.1453C30.4598 95.9013 28.651 96.5267 26.8068 97.04C24.963 97.5507 23.0688 97.912 21.1505 98.012C19.2521 98.0933 17.2369 97.9333 15.5546 96.924C13.8312 95.9293 12.9953 93.9187 12.9166 92.024L13.0494 92.0147C13.3068 92.9427 13.612 93.832 14.1254 94.5507C14.6437 95.2587 15.2625 95.82 16.0093 96.1773C16.7525 96.5373 17.5912 96.7107 18.4505 96.768C19.3052 96.8613 20.1948 96.8414 21.0844 96.756C22.8724 96.62 24.6718 96.2214 26.4682 95.788C28.25 95.3174 30.0661 94.7893 31.8016 94.1947L33.1906 93.72L33.1202 95.0547L32.926 98.7147C32.8254 99.9493 32.8229 101.184 32.712 102.435L32.5792 102.451Z" fill="#515151"/>
<path d="M38.5635 102.476C38.0708 102.712 37.5776 102.821 37.0839 102.912C36.5912 103.003 36.0979 102.997 35.6047 103.043C35.1115 102.995 34.6183 103.004 34.1255 102.911C33.6317 102.82 33.1385 102.711 32.6459 102.476V102.409C34.6183 102.373 36.5912 102.373 38.5635 102.409V102.476Z" fill="#0C0C0C"/>
<path d="M26.8677 87.652C28.9645 87.6013 31.065 87.628 33.1587 87.7853C34.2041 87.868 35.2505 87.984 36.2811 88.2013C36.7953 88.316 37.3082 88.44 37.7953 88.6667C38.2942 88.932 38.5634 89.4426 38.7525 89.9306C39.4134 91.96 39.3182 94.104 39.2505 96.1893C39.1421 98.2867 38.915 100.375 38.5967 102.448L38.5301 102.437C38.5994 101.389 38.6363 100.339 38.6535 99.292C38.7015 98.248 38.739 97.2053 38.7343 96.1653C38.7119 94.12 38.7739 91.9507 38.1297 90.1653C37.9822 89.7386 37.7421 89.3573 37.5093 89.2373C37.1442 89.0533 36.6286 88.908 36.1521 88.7946C35.1723 88.5573 34.1415 88.456 33.1171 88.3027C32.0874 88.168 31.0483 88.0733 30.0062 87.9933C28.965 87.8786 27.9187 87.784 26.8687 87.7173L26.8677 87.652Z" fill="#515151"/>
<path d="M33.0838 112.808C32.6854 112.551 32.5516 112.061 32.4874 111.636C32.4229 111.197 32.4188 110.755 32.4166 110.317L32.426 107.691L32.5958 102.441L32.6958 102.444C33.3182 104.212 33.4301 105.963 33.4254 107.709C33.3953 108.581 33.3442 109.455 33.2052 110.32C33.1453 110.759 33.0568 111.157 33.0114 111.563C32.9416 111.976 32.9114 112.333 33.1421 112.728L33.0838 112.808Z" fill="#373733"/>
<path d="M45.0082 112.265C44.6822 112.697 44.1521 112.843 43.6671 112.96C43.1677 113.061 42.6578 113.088 42.1525 113.091L39.1249 113.107L36.0973 113.091L34.5833 113.079C34.0858 113.057 33.5478 113.075 33.0947 112.796L33.1311 112.74C33.6093 112.881 34.0911 112.8 34.5869 112.728L36.0973 112.573C37.1067 112.48 38.1155 112.488 39.1249 112.44C40.1338 112.485 41.1431 112.481 42.1525 112.571C42.6458 112.624 43.1187 112.651 43.5963 112.615C44.0691 112.597 44.5625 112.527 44.9499 112.232L45.0082 112.265Z" fill="#0C0C0C"/>
<path d="M38.5967 102.445L38.1245 108.127L38.0775 108.063C39.4374 108.387 40.763 108.847 42.0234 109.452C42.6489 109.76 43.2614 110.108 43.8067 110.551C44.3415 110.991 44.8494 111.54 45.0114 112.24L44.9463 112.256C44.6489 111.619 44.1187 111.205 43.565 110.851C43.0177 110.483 42.3953 110.219 41.7749 109.964C41.1625 109.691 40.5245 109.461 39.8781 109.257L37.9379 108.668L37.453 108.521L37.5041 108.072C37.6114 107.128 37.715 106.183 37.9046 105.245C37.9967 104.777 38.053 104.305 38.177 103.84C38.2911 103.373 38.3858 102.904 38.5301 102.44L38.5967 102.445Z" fill="#515151"/>
<path d="M0.286377 110.771C1.04678 110.517 1.57291 109.891 2.09211 109.331C2.59678 108.74 3.00571 108.072 3.43224 107.419C3.85251 106.757 4.18491 106.041 4.55051 105.34C4.92184 104.641 5.25784 103.919 5.57024 103.184L5.85824 102.505L6.37864 102.969C6.90411 103.437 7.39944 103.944 7.91197 104.429C8.41144 104.931 8.89837 105.447 9.35784 105.996L9.31611 106.048L6.01971 103.413L6.10251 103.392C5.52184 104.907 4.83384 106.392 3.92811 107.747C3.47758 108.423 2.97131 109.068 2.38384 109.633C1.79318 110.176 1.12544 110.732 0.289042 110.837L0.286377 110.771Z" fill="#515151"/>
<path d="M4.61972 96.9027C3.96505 96.928 3.62545 97.496 3.37345 98.0347C3.09892 98.5747 2.89732 99.1693 2.72652 99.7707C2.37599 100.973 2.04479 102.197 1.78799 103.444C1.44479 104.676 1.17812 105.923 0.857852 107.157C0.692652 107.773 0.542655 108.393 0.414521 109.013C0.337455 109.323 0.267721 109.632 0.220255 109.943C0.196388 110.097 0.17972 110.253 0.177587 110.404C0.17452 110.547 0.168788 110.729 0.287454 110.771V110.837C0.0655876 110.8 0.0573217 110.568 0.0249217 110.425C0.00212174 110.264 -0.00161345 110.101 0.000519886 109.939C0.00358655 109.616 0.0317208 109.295 0.0655874 108.975C0.135854 108.333 0.237454 107.699 0.349454 107.065C0.57452 105.797 0.846786 104.541 1.14119 103.289C1.44892 102.04 1.78639 100.796 2.24012 99.588C2.47132 98.988 2.72865 98.392 3.07599 97.8454C3.40465 97.332 3.92399 96.712 4.62759 96.836L4.61972 96.9027Z" fill="#0C0C0C"/>
<path d="M11.9255 100.697C10.4011 100.571 9.14219 100.024 7.93499 99.392C7.34592 99.052 6.76353 98.704 6.21979 98.2853C5.65739 97.8947 5.17299 97.3973 4.61353 96.9187L4.63339 96.8213C5.31886 96.9827 5.94019 97.292 6.56619 97.58C7.18966 97.8773 7.80312 98.192 8.41259 98.5147C9.61566 99.1893 10.8022 99.8907 11.9777 100.611L11.9255 100.697Z" fill="#515151"/>
<path d="M50.9046 57.7787L42.3645 45.6774L51.4412 57.3814L50.9046 57.7787Z" fill="#FFB600"/>
<path d="M47.6203 56.3813L38.5635 50.1493L47.9807 55.8214L47.6203 56.3813Z" fill="#FFB600"/>
<path d="M50.5812 53.4867L46.0115 39.0027L51.2131 53.2707L50.5812 53.4867Z" fill="#FFB600"/>
<path d="M50.1166 59.6494L43.2432 63.7693L49.7505 59.092L50.1166 59.6494Z" fill="#FFB600"/>
<path d="M52.1015 59.6L44.0844 67.4894L51.6197 59.14L52.1015 59.6Z" fill="#FFB600"/>
<path d="M51.204 61.6987L44.842 76.0054L50.5895 61.44L51.204 61.6987Z" fill="#FFB600"/>
<path d="M51.2265 65.24L49.9333 71.6187L50.5677 65.14L51.2265 65.24Z" fill="#FFB600"/>
<path d="M33.863 77.0974C33.3989 76.9854 33.0921 76.6374 32.8464 76.2974C32.6016 75.948 32.4849 75.5494 32.351 75.1654C32.3046 74.7614 32.2297 74.3667 32.2745 73.9627C32.3172 73.5613 32.3964 73.164 32.6125 72.772L32.6792 72.7694C32.7254 73.5254 32.8161 74.2814 32.9989 75.0147C33.1692 75.7374 33.3916 76.5027 33.9046 77.0454L33.863 77.0974Z" fill="#1F1F1F"/>
<path d="M52.1938 113.04H51.5271V39.0027H52.1938V113.04Z" fill="#FFB600"/>
<path d="M51.6702 113.04H51.0035V39.0027H51.6702V113.04Z" fill="#424251"/>
</svg>
