<svg width="123" height="145" viewBox="0 0 123 145" fill="none" xmlns="http://www.w3.org/2000/svg">
<path d="M122.209 35.4393L80.2445 23.2153C80.3645 24.7873 80.4192 26.398 80.4192 28.0473V28.354L116.706 38.9233V101.81H122.209V36.2207H121.981L122.209 35.4393Z" fill="white"/>
<path d="M122.209 144.301H116.706V101.811H122.209V144.301Z" fill="white"/>
<path d="M12.9486 142.892H0.218018V140.527H12.9486V142.892Z" fill="white"/>
<path d="M0.217773 127.016H12.9484V128.225C12.9484 128.413 12.9164 128.569 12.8564 128.694C12.7951 128.82 12.6898 128.94 12.5431 129.057L4.05644 135.672C4.44444 135.637 4.80177 135.62 5.13111 135.62H12.9484V137.697H0.217773V136.461C0.217773 136.362 0.221773 136.276 0.231107 136.202C0.24044 136.129 0.25644 136.065 0.28444 136.009C0.309773 135.954 0.34844 135.9 0.399107 135.848C0.44844 135.796 0.515107 135.737 0.59644 135.672L9.11911 129.032C8.91244 129.048 8.71111 129.064 8.51111 129.076C8.31111 129.088 8.12711 129.093 7.95644 129.093H0.217773V127.016Z" fill="white"/>
<path d="M0.217773 110.457H12.9484V112.534H4.72577C4.39644 112.534 4.04177 112.516 3.66044 112.481L10.8884 116.31C11.2351 116.49 11.4084 116.768 11.4084 117.142V117.476C11.4084 117.849 11.2351 118.126 10.8884 118.308L3.63377 122.18C3.82711 122.162 4.01911 122.148 4.20577 122.136C4.39377 122.124 4.56711 122.118 4.72577 122.118H12.9484V124.196H0.217773V122.417C0.217773 122.312 0.22044 122.221 0.227107 122.145C0.23244 122.069 0.247107 122 0.271107 121.938C0.295107 121.877 0.33244 121.821 0.385773 121.772C0.437773 121.722 0.50844 121.674 0.59644 121.628L7.66577 117.834C7.85377 117.734 8.04711 117.644 8.24577 117.558C8.44711 117.474 8.65111 117.39 8.86311 117.309C8.64577 117.226 8.43644 117.142 8.23377 117.054C8.03111 116.966 7.83644 116.873 7.64844 116.773L0.59644 113.033C0.50844 112.985 0.437773 112.936 0.385773 112.884C0.33244 112.832 0.295107 112.774 0.271107 112.713C0.247107 112.652 0.23244 112.584 0.227107 112.508C0.22044 112.43 0.217773 112.341 0.217773 112.236V110.457Z" fill="white"/>
<path d="M6.58357 97.9635C5.8849 97.9635 5.25824 98.0568 4.70357 98.2435C4.1489 98.4315 3.6769 98.6968 3.29024 99.0421C2.90224 99.3861 2.60757 99.8048 2.4009 100.298C2.19557 100.791 2.0929 101.349 2.0929 101.967C2.0929 102.587 2.19557 103.143 2.4009 103.637C2.60757 104.13 2.90224 104.55 3.29024 104.898C3.6769 105.246 4.1489 105.513 4.70357 105.701C5.25824 105.886 5.8849 105.981 6.58357 105.981C7.2809 105.981 7.90757 105.886 8.46224 105.701C9.0169 105.513 9.48757 105.246 9.87157 104.898C10.2556 104.55 10.5516 104.13 10.7556 103.637C10.9609 103.143 11.0636 102.587 11.0636 101.967C11.0636 101.349 10.9609 100.791 10.7556 100.298C10.5516 99.8048 10.2556 99.3861 9.87157 99.0421C9.48757 98.6968 9.0169 98.4315 8.46224 98.2435C7.90757 98.0568 7.2809 97.9635 6.58357 97.9635ZM6.58357 95.5541C7.51557 95.5541 8.38091 95.7088 9.17557 96.0141C9.97157 96.3221 10.6596 96.7555 11.2396 97.3155C11.8222 97.8768 12.2756 98.5501 12.6009 99.3395C12.9262 100.127 13.0889 101.003 13.0889 101.967C13.0889 102.926 12.9262 103.798 12.6009 104.587C12.2756 105.377 11.8222 106.051 11.2396 106.615C10.6596 107.179 9.97157 107.615 9.17557 107.926C8.38091 108.235 7.51557 108.389 6.58357 108.389C5.65024 108.389 4.7849 108.235 3.99024 107.926C3.19557 107.615 2.50624 107.179 1.92624 106.615C1.3449 106.051 0.890238 105.377 0.564905 104.587C0.239571 103.798 0.0769043 102.926 0.0769043 101.967C0.0769043 101.325 0.151571 100.721 0.300905 100.154C0.450238 99.5875 0.662238 99.0675 0.935571 98.5955C1.2089 98.1208 1.53957 97.6968 1.93024 97.3208C2.3209 96.9421 2.7569 96.6235 3.2369 96.3608C3.71957 96.0981 4.2409 95.8968 4.8049 95.7608C5.36757 95.6235 5.9609 95.5541 6.58357 95.5541" fill="white"/>
<path d="M11.0991 88.7369C11.0991 88.2996 11.0471 87.9316 10.9404 87.6343C10.8351 87.3356 10.6938 87.0983 10.5178 86.9196C10.3431 86.7409 10.1364 86.6129 9.90311 86.5343C9.66711 86.4556 9.41777 86.4156 9.15377 86.4156C8.87777 86.4156 8.62977 86.4596 8.40977 86.5463C8.18844 86.6356 8.00177 86.7716 7.84711 86.9596C7.68977 87.1463 7.57111 87.3863 7.48977 87.6823C7.40711 87.9769 7.36577 88.3316 7.36577 88.7463V91.1209H11.0991V88.7369ZM2.04844 91.1209H5.72977V89.2463C5.72977 88.4396 5.58177 87.8303 5.28977 87.4196C4.99511 87.0076 4.52844 86.8009 3.88977 86.8009C3.22577 86.8009 2.75244 86.9876 2.47111 87.3623C2.18977 87.7356 2.04844 88.3209 2.04844 89.1143V91.1209ZM0.217773 89.1143C0.217773 88.2849 0.296441 87.5756 0.456441 86.9863C0.613774 86.3956 0.840441 85.9116 1.13244 85.5356C1.42711 85.1583 1.78177 84.8823 2.19777 84.7076C2.61511 84.5329 3.08444 84.4436 3.60711 84.4436C3.90577 84.4436 4.19244 84.4876 4.46444 84.5756C4.73777 84.6636 4.99377 84.7996 5.23244 84.9836C5.46844 85.1663 5.68444 85.4009 5.87911 85.6836C6.07111 85.9676 6.23777 86.3049 6.37111 86.6969C6.76444 84.9556 7.70977 84.0849 9.20577 84.0849C9.74577 84.0849 10.2444 84.1876 10.7031 84.3916C11.1604 84.5969 11.5564 84.8943 11.8871 85.2849C12.2191 85.6769 12.4778 86.1583 12.6671 86.7316C12.8538 87.3036 12.9484 87.9583 12.9484 88.6943V93.4783H0.217773V89.1143Z" fill="white"/>
<path d="M12.9486 81.9385H0.218018V79.5732H12.9486V81.9385Z" fill="white"/>
<path d="M10.9938 69.3216H12.9484V76.743H0.217773V74.387H10.9938V69.3216Z" fill="white"/>
<path d="M12.9486 67.6412H0.218018V65.2759H12.9486V67.6412Z" fill="white"/>
<path d="M8.14068 55.7512L3.90602 57.2925C3.71935 57.3685 3.49668 57.4472 3.23668 57.5298C2.97935 57.6112 2.70068 57.6938 2.40068 57.7752C2.70068 57.8512 2.98068 57.9298 3.24202 58.0112C3.50202 58.0938 3.73002 58.1725 3.92468 58.2485L8.14068 59.7805V55.7512ZM12.9474 51.5898V53.4125C12.9474 53.6165 12.8967 53.7832 12.794 53.9112C12.6914 54.0392 12.5634 54.1365 12.4114 54.2005L9.81402 55.1458V60.3938L12.4114 61.3405C12.546 61.3885 12.6687 61.4778 12.7807 61.6125C12.8914 61.7472 12.9474 61.9138 12.9474 62.1125V63.9512L0.218018 58.9672V56.5658L12.9474 51.5898Z" fill="white"/>
<path d="M6.27486 46.4465C6.27486 46.0025 6.21886 45.6159 6.10686 45.2852C5.9962 44.9559 5.84286 44.6839 5.6442 44.4719C5.4482 44.2572 5.21486 44.0985 4.94553 43.9932C4.6762 43.8892 4.37886 43.8359 4.0562 43.8359C3.41086 43.8359 2.91353 44.0479 2.5682 44.4719C2.22153 44.8945 2.0482 45.5412 2.0482 46.4119V47.9185H6.27486V46.4465ZM12.9482 40.3839V42.5132C12.9482 42.9159 12.7895 43.2079 12.4722 43.3892L8.3962 46.0532C8.2442 46.1519 8.1362 46.2612 8.07086 46.3812C8.00686 46.5012 7.97353 46.6772 7.97353 46.9119V47.9185H12.9482V50.2759H0.217529V46.4119C0.217529 45.5532 0.306863 44.8159 0.48553 44.1999C0.66553 43.5839 0.916196 43.0785 1.23886 42.6839C1.56153 42.2892 1.9482 41.9999 2.3962 41.8119C2.84553 41.6252 3.3402 41.5319 3.8802 41.5319C4.3082 41.5319 4.71353 41.5945 5.09486 41.7199C5.4762 41.8452 5.82286 42.0265 6.13486 42.2639C6.44553 42.4999 6.71753 42.7919 6.95353 43.1399C7.1882 43.4865 7.3722 43.8825 7.50686 44.3265C7.59486 44.1745 7.69886 44.0345 7.81886 43.9065C7.9402 43.7785 8.08153 43.6612 8.24686 43.5559L12.9482 40.3839Z" fill="white"/>
<path d="M12.9486 39.0079H0.218018V36.6426H12.9486V39.0079Z" fill="white"/>
<path d="M8.14068 27.1198L3.90602 28.6611C3.71935 28.7371 3.49668 28.8158 3.23668 28.8984C2.97935 28.9798 2.70068 29.0624 2.40068 29.1438C2.70068 29.2198 2.98068 29.2984 3.24202 29.3798C3.50202 29.4624 3.73002 29.5411 3.92468 29.6171L8.14068 31.1491V27.1198ZM12.9474 22.9584V24.7811C12.9474 24.9851 12.8967 25.1518 12.794 25.2798C12.6914 25.4078 12.5634 25.5051 12.4114 25.5691L9.81402 26.5144V31.7624L12.4114 32.7091C12.546 32.7571 12.6687 32.8464 12.7807 32.9811C12.8914 33.1158 12.9474 33.2824 12.9474 33.4811V35.3198L0.218018 30.3358V27.9344L12.9474 22.9584Z" fill="white"/>
<path d="M26.2437 139.306L23.085 139.31L23.0677 128.53L25.525 128.526C28.033 128.522 29.0877 129.523 29.0917 132.782L29.097 135.841C29.101 138.447 28.0997 139.303 26.2437 139.306ZM23.0477 114.239L25.7037 114.235C27.6597 114.233 28.513 115.334 28.517 117.841L28.521 119.797C28.525 122.606 27.2717 123.509 25.2157 123.513L23.0597 123.515L23.0477 114.239ZM30.485 125.611C32.9397 124.453 34.0397 122.146 34.0343 118.535L34.0317 117.281C34.0237 111.866 31.5623 109.213 25.8463 109.222L17.5237 109.234L17.577 144.333L26.2503 144.319C31.7663 144.311 34.6197 141.398 34.6117 135.983L34.6063 133.125C34.6023 129.415 33.4437 126.759 30.485 125.611" fill="white"/>
<path d="M50.2267 139.708C48.4721 139.711 47.3681 138.759 47.3654 136.252L47.3347 117.298C47.3307 114.792 48.4321 113.839 50.1881 113.836C51.9427 113.834 53.0467 114.784 53.0507 117.291L53.0814 136.244C53.0841 138.751 51.9814 139.706 50.2267 139.708ZM50.1814 108.822C44.7641 108.83 41.8107 112.043 41.8187 117.658L41.8481 135.91C41.8574 141.526 44.8187 144.731 50.2347 144.723C55.6494 144.715 58.6027 141.5 58.5947 135.886L58.5681 117.632C58.5587 112.016 55.5947 108.812 50.1814 108.822" fill="white"/>
<path d="M57.2996 68.4257L42.2583 68.4484L42.3116 103.548L57.353 103.524L57.345 98.5097L47.8196 98.5257L47.8023 88.2457L55.3756 88.2337L55.3676 83.2217L47.7956 83.2311L47.7796 73.4537L57.3063 73.4404L57.2996 68.4257Z" fill="white"/>
<path d="M83.068 5.4987V0.410702L78.1826 1.83337L17.48 19.516V62.7494H22.9827V23.0014L78.1826 6.92137V103.548H83.068V5.4987Z" fill="white"/>
<path d="M17.4792 85.8867H17.5512L17.5779 103.548L32.1699 103.525L32.1619 98.5134L23.0859 98.5254L23.0392 68.44H22.9819V68.036H17.4792V85.8867Z" fill="white"/>
<path d="M78.1825 108.635V110.299H78.2172L78.2478 130.225L72.5492 109.225L65.6305 109.235L65.6838 144.334L70.6478 144.327L70.6092 118.905L77.5172 144.317L83.1825 144.309L83.1305 109.21H83.0678V108.635H78.1825Z" fill="white"/>
</svg>
