<svg width="300" height="300" viewBox="0 0 300 300" fill="none" xmlns="http://www.w3.org/2000/svg">
<rect width="300" height="300" fill="white"/>
<path d="M223.819 98.1066L164.988 80.9693C165.159 83.1746 165.234 85.432 165.234 87.7453V88.1746L216.104 102.992V191.151H223.819V99.2026H223.5L223.819 98.1066Z" fill="#F04D44"/>
<path d="M223.819 250.718H216.105V191.151H223.819V250.718Z" fill="#F04D44"/>
<path d="M89.2865 243.716L84.8585 243.723L84.8345 228.609L88.2798 228.604C91.7932 228.599 93.2732 230.003 93.2798 234.572L93.2865 238.859C93.2918 242.515 91.8878 243.712 89.2865 243.716ZM84.8038 208.576L88.5305 208.571C91.2705 208.567 92.4692 210.111 92.4745 213.625L92.4785 216.367C92.4838 220.303 90.7292 221.571 87.8465 221.576L84.8238 221.579L84.8038 208.576ZM95.2318 224.517C98.6745 222.895 100.214 219.659 100.206 214.597L100.204 212.84C100.193 205.248 96.7438 201.528 88.7305 201.541L77.0625 201.559L77.1372 250.763L89.2972 250.744C97.0292 250.733 101.03 246.649 101.018 239.059L101.012 235.051C101.004 229.851 99.3812 226.127 95.2318 224.517" fill="#1BAAA1"/>
<path d="M122.909 244.28C120.449 244.284 118.901 242.95 118.896 239.436L118.854 212.864C118.849 209.35 120.393 208.014 122.853 208.01C125.314 208.006 126.862 209.338 126.868 212.853L126.909 239.424C126.913 242.938 125.369 244.276 122.909 244.28ZM122.844 200.98C115.252 200.992 111.11 205.496 111.124 213.368L111.162 238.956C111.174 246.828 115.328 251.321 122.92 251.309C130.512 251.298 134.652 246.793 134.64 238.92L134.601 213.333C134.589 205.461 130.434 200.969 122.844 200.98" fill="#1BAAA1"/>
<path d="M132.824 144.35L111.737 144.382L111.812 193.587L132.898 193.554L132.888 186.526L119.533 186.546L119.51 172.135L130.125 172.119L130.114 165.091L119.5 165.106L119.478 151.399L132.834 151.379L132.824 144.35Z" fill="#1BAAA1"/>
<path d="M168.948 56.1333V49L162.1 50.9947L77 75.784V136.391H84.7147V80.6707L162.1 58.1293V193.587H168.948V56.1333Z" fill="#1BAAA1"/>
<path d="M77 168.828H77.1L77.1387 193.587L97.5933 193.556L97.5827 186.528L84.86 186.547L84.7947 144.371H84.7147V143.804H77V168.828Z" fill="#1BAAA1"/>
<path d="M162.1 200.719V203.053H162.149L162.192 230.987L154.204 201.547L144.504 201.561L144.578 250.765L151.537 250.755L151.484 215.117L161.166 250.741L169.11 250.729L169.036 201.524H168.948V200.719H162.1Z" fill="#1BAAA1"/>
</svg>
